<?xml version="1.0" encoding="UTF-8" standalone="no"?>
<svg xmlns="http://www.w3.org/2000/svg" viewBox="0 0 64 64">
  <!-- Hintergrund: Seeblau -->
  <rect width="64" height="64" rx="14" fill="#4aa5c2"/>
  <!-- Ohren -->
  <circle cx="13" cy="13" r="7" fill="#2b2119"/>
  <circle cx="51" cy="13" r="7" fill="#2b2119"/>
  <circle cx="13" cy="13" r="3.5" fill="#e5d5b8"/>
  <circle cx="51" cy="13" r="3.5" fill="#e5d5b8"/>
  <!-- Kopf -->
  <circle cx="32" cy="33" r="24" fill="#38291d"/>
  <!-- cremefarbene Kappe -->
  <path d="M 8.6,28 A 24,24 0 0 1 55.4,28 Q 32,21 8.6,28 Z" fill="#f3ebdb"/>
  <!-- Augen -->
  <circle cx="21" cy="36" r="5.5" fill="#e5d5b8"/>
  <circle cx="43" cy="36" r="5.5" fill="#e5d5b8"/>
  <circle cx="21.8" cy="36.5" r="3" fill="#120d09"/>
  <circle cx="42.2" cy="36.5" r="3" fill="#120d09"/>
  <!-- Schnauze -->
  <ellipse cx="32" cy="46" rx="9.5" ry="7" fill="#5a442f"/>
  <ellipse cx="32" cy="43.5" rx="4.5" ry="3.5" fill="#0f0b08"/>
  <path d="M 28,50 Q 32,53 36,50" stroke="#0f0b08" stroke-width="2" stroke-linecap="round" fill="none"/>
  <!-- Halstuch -->
  <path d="M 13,52 L 51,52 L 32,64 Z" fill="#f7931a"/>
</svg>
